<svg width="1363" height="163" viewBox="0 0 1363 163" fill="none" xmlns="http://www.w3.org/2000/svg">
<path d="M0 15C0 6.71573 6.71573 0 15 0H37V163H15C6.71573 163 0 156.284 0 148V15Z" fill="#424242"/>
<rect width="1097" height="163" transform="translate(37)" fill="#F0F0F0"/>
<path d="M101.906 53.9219L94.3945 51.2383V48.0859L104.602 52.375V54.6367L101.906 53.9219ZM94.3945 56.1719L101.918 53.4297L104.602 52.7852V55.0352L94.3945 59.3242V56.1719ZM119.543 54.918H115.195V52.1758H119.543C120.215 52.1758 120.762 52.0664 121.184 51.8477C121.605 51.6211 121.914 51.3086 122.109 50.9102C122.305 50.5117 122.402 50.0625 122.402 49.5625C122.402 49.0547 122.305 48.582 122.109 48.1445C121.914 47.707 121.605 47.3555 121.184 47.0898C120.762 46.8242 120.215 46.6914 119.543 46.6914H116.414V61H112.898V43.9375H119.543C120.879 43.9375 122.023 44.1797 122.977 44.6641C123.938 45.1406 124.672 45.8008 125.18 46.6445C125.688 47.4883 125.941 48.4531 125.941 49.5391C125.941 50.6406 125.688 51.5938 125.18 52.3984C124.672 53.2031 123.938 53.8242 122.977 54.2617C122.023 54.6992 120.879 54.918 119.543 54.918ZM131.719 43V61H128.332V43H131.719ZM141.352 58.1406V52.4922C141.352 52.0859 141.285 51.7383 141.152 51.4492C141.02 51.1523 140.812 50.9219 140.531 50.7578C140.258 50.5938 139.902 50.5117 139.465 50.5117C139.09 50.5117 138.766 50.5781 138.492 50.7109C138.219 50.8359 138.008 51.0195 137.859 51.2617C137.711 51.4961 137.637 51.7734 137.637 52.0938H134.262C134.262 51.5547 134.387 51.043 134.637 50.5586C134.887 50.0742 135.25 49.6484 135.727 49.2812C136.203 48.9062 136.77 48.6133 137.426 48.4023C138.09 48.1914 138.832 48.0859 139.652 48.0859C140.637 48.0859 141.512 48.25 142.277 48.5781C143.043 48.9062 143.645 49.3984 144.082 50.0547C144.527 50.7109 144.75 51.5312 144.75 52.5156V57.9414C144.75 58.6367 144.793 59.207 144.879 59.6523C144.965 60.0898 145.09 60.4727 145.254 60.8008V61H141.844C141.68 60.6562 141.555 60.2266 141.469 59.7109C141.391 59.1875 141.352 58.6641 141.352 58.1406ZM141.797 53.2773L141.82 55.1875H139.934C139.488 55.1875 139.102 55.2383 138.773 55.3398C138.445 55.4414 138.176 55.5859 137.965 55.7734C137.754 55.9531 137.598 56.1641 137.496 56.4062C137.402 56.6484 137.355 56.9141 137.355 57.2031C137.355 57.4922 137.422 57.7539 137.555 57.9883C137.688 58.2148 137.879 58.3945 138.129 58.5273C138.379 58.6523 138.672 58.7148 139.008 58.7148C139.516 58.7148 139.957 58.6133 140.332 58.4102C140.707 58.207 140.996 57.957 141.199 57.6602C141.41 57.3633 141.52 57.082 141.527 56.8164L142.418 58.2461C142.293 58.5664 142.121 58.8984 141.902 59.2422C141.691 59.5859 141.422 59.9102 141.094 60.2148C140.766 60.5117 140.371 60.7578 139.91 60.9531C139.449 61.1406 138.902 61.2344 138.27 61.2344C137.465 61.2344 136.734 61.0742 136.078 60.7539C135.43 60.4258 134.914 59.9766 134.531 59.4062C134.156 58.8281 133.969 58.1719 133.969 57.4375C133.969 56.7734 134.094 56.1836 134.344 55.668C134.594 55.1523 134.961 54.7188 135.445 54.3672C135.938 54.0078 136.551 53.7383 137.285 53.5586C138.02 53.3711 138.871 53.2773 139.84 53.2773H141.797ZM150.656 51.0273V61H147.281V48.3203H150.445L150.656 51.0273ZM150.164 54.2148H149.25C149.25 53.2773 149.371 52.4336 149.613 51.6836C149.855 50.9258 150.195 50.2812 150.633 49.75C151.07 49.2109 151.59 48.8008 152.191 48.5195C152.801 48.2305 153.48 48.0859 154.23 48.0859C154.824 48.0859 155.367 48.1719 155.859 48.3438C156.352 48.5156 156.773 48.7891 157.125 49.1641C157.484 49.5391 157.758 50.0352 157.945 50.6523C158.141 51.2695 158.238 52.0234 158.238 52.9141V61H154.84V52.9023C154.84 52.3398 154.762 51.9023 154.605 51.5898C154.449 51.2773 154.219 51.0586 153.914 50.9336C153.617 50.8008 153.25 50.7344 152.812 50.7344C152.359 50.7344 151.965 50.8242 151.629 51.0039C151.301 51.1836 151.027 51.4336 150.809 51.7539C150.598 52.0664 150.438 52.4336 150.328 52.8555C150.219 53.2773 150.164 53.7305 150.164 54.2148ZM167.016 48.3203V50.7109H159.633V48.3203H167.016ZM161.461 45.1914H164.836V57.1797C164.836 57.5469 164.883 57.8281 164.977 58.0234C165.078 58.2188 165.227 58.3555 165.422 58.4336C165.617 58.5039 165.863 58.5391 166.16 58.5391C166.371 58.5391 166.559 58.5312 166.723 58.5156C166.895 58.4922 167.039 58.4688 167.156 58.4453L167.168 60.9297C166.879 61.0234 166.566 61.0977 166.23 61.1523C165.895 61.207 165.523 61.2344 165.117 61.2344C164.375 61.2344 163.727 61.1133 163.172 60.8711C162.625 60.6211 162.203 60.2227 161.906 59.6758C161.609 59.1289 161.461 58.4102 161.461 57.5195V45.1914ZM175.793 54.918H171.445V52.1758H175.793C176.465 52.1758 177.012 52.0664 177.434 51.8477C177.855 51.6211 178.164 51.3086 178.359 50.9102C178.555 50.5117 178.652 50.0625 178.652 49.5625C178.652 49.0547 178.555 48.582 178.359 48.1445C178.164 47.707 177.855 47.3555 177.434 47.0898C177.012 46.8242 176.465 46.6914 175.793 46.6914H172.664V61H169.148V43.9375H175.793C177.129 43.9375 178.273 44.1797 179.227 44.6641C180.188 45.1406 180.922 45.8008 181.43 46.6445C181.938 47.4883 182.191 48.4531 182.191 49.5391C182.191 50.6406 181.938 51.5938 181.43 52.3984C180.922 53.2031 180.188 53.8242 179.227 54.2617C178.273 54.6992 177.129 54.918 175.793 54.918ZM191.906 57.9648V48.3203H195.281V61H192.105L191.906 57.9648ZM192.281 55.3633L193.277 55.3398C193.277 56.1836 193.18 56.9688 192.984 57.6953C192.789 58.4141 192.496 59.0391 192.105 59.5703C191.715 60.0938 191.223 60.5039 190.629 60.8008C190.035 61.0898 189.336 61.2344 188.531 61.2344C187.914 61.2344 187.344 61.1484 186.82 60.9766C186.305 60.7969 185.859 60.5195 185.484 60.1445C185.117 59.7617 184.828 59.2734 184.617 58.6797C184.414 58.0781 184.312 57.3555 184.312 56.5117V48.3203H187.688V56.5352C187.688 56.9102 187.73 57.2266 187.816 57.4844C187.91 57.7422 188.039 57.9531 188.203 58.1172C188.367 58.2812 188.559 58.3984 188.777 58.4688C189.004 58.5391 189.254 58.5742 189.527 58.5742C190.223 58.5742 190.77 58.4336 191.168 58.1523C191.574 57.8711 191.859 57.4883 192.023 57.0039C192.195 56.5117 192.281 55.9648 192.281 55.3633ZM201.422 43V61H198.035V43H201.422ZM211.066 57.4961C211.066 57.2539 210.996 57.0352 210.855 56.8398C210.715 56.6445 210.453 56.4648 210.07 56.3008C209.695 56.1289 209.152 55.9727 208.441 55.832C207.801 55.6914 207.203 55.5156 206.648 55.3047C206.102 55.0859 205.625 54.8242 205.219 54.5195C204.82 54.2148 204.508 53.8555 204.281 53.4414C204.055 53.0195 203.941 52.5391 203.941 52C203.941 51.4688 204.055 50.9688 204.281 50.5C204.516 50.0312 204.848 49.6172 205.277 49.2578C205.715 48.8906 206.246 48.6055 206.871 48.4023C207.504 48.1914 208.215 48.0859 209.004 48.0859C210.105 48.0859 211.051 48.2617 211.84 48.6133C212.637 48.9648 213.246 49.4492 213.668 50.0664C214.098 50.6758 214.312 51.3711 214.312 52.1523H210.938C210.938 51.8242 210.867 51.5312 210.727 51.2734C210.594 51.0078 210.383 50.8008 210.094 50.6523C209.812 50.4961 209.445 50.418 208.992 50.418C208.617 50.418 208.293 50.4844 208.02 50.6172C207.746 50.7422 207.535 50.9141 207.387 51.1328C207.246 51.3438 207.176 51.5781 207.176 51.8359C207.176 52.0312 207.215 52.207 207.293 52.3633C207.379 52.5117 207.516 52.6484 207.703 52.7734C207.891 52.8984 208.133 53.0156 208.43 53.125C208.734 53.2266 209.109 53.3203 209.555 53.4062C210.469 53.5938 211.285 53.8398 212.004 54.1445C212.723 54.4414 213.293 54.8477 213.715 55.3633C214.137 55.8711 214.348 56.5391 214.348 57.3672C214.348 57.9297 214.223 58.4453 213.973 58.9141C213.723 59.3828 213.363 59.793 212.895 60.1445C212.426 60.4883 211.863 60.7578 211.207 60.9531C210.559 61.1406 209.828 61.2344 209.016 61.2344C207.836 61.2344 206.836 61.0234 206.016 60.6016C205.203 60.1797 204.586 59.6445 204.164 58.9961C203.75 58.3398 203.543 57.668 203.543 56.9805H206.742C206.758 57.4414 206.875 57.8125 207.094 58.0938C207.32 58.375 207.605 58.5781 207.949 58.7031C208.301 58.8281 208.68 58.8906 209.086 58.8906C209.523 58.8906 209.887 58.832 210.176 58.7148C210.465 58.5898 210.684 58.4258 210.832 58.2227C210.988 58.0117 211.066 57.7695 211.066 57.4961ZM222.375 61.2344C221.391 61.2344 220.508 61.0781 219.727 60.7656C218.945 60.4453 218.281 60.0039 217.734 59.4414C217.195 58.8789 216.781 58.2266 216.492 57.4844C216.203 56.7344 216.059 55.9375 216.059 55.0938V54.625C216.059 53.6641 216.195 52.7852 216.469 51.9883C216.742 51.1914 217.133 50.5 217.641 49.9141C218.156 49.3281 218.781 48.8789 219.516 48.5664C220.25 48.2461 221.078 48.0859 222 48.0859C222.898 48.0859 223.695 48.2344 224.391 48.5312C225.086 48.8281 225.668 49.25 226.137 49.7969C226.613 50.3438 226.973 51 227.215 51.7656C227.457 52.5234 227.578 53.3672 227.578 54.2969V55.7031H217.5V53.4531H224.262V53.1953C224.262 52.7266 224.176 52.3086 224.004 51.9414C223.84 51.5664 223.59 51.2695 223.254 51.0508C222.918 50.832 222.488 50.7227 221.965 50.7227C221.52 50.7227 221.137 50.8203 220.816 51.0156C220.496 51.2109 220.234 51.4844 220.031 51.8359C219.836 52.1875 219.688 52.6016 219.586 53.0781C219.492 53.5469 219.445 54.0625 219.445 54.625V55.0938C219.445 55.6016 219.516 56.0703 219.656 56.5C219.805 56.9297 220.012 57.3008 220.277 57.6133C220.551 57.9258 220.879 58.168 221.262 58.3398C221.652 58.5117 222.094 58.5977 222.586 58.5977C223.195 58.5977 223.762 58.4805 224.285 58.2461C224.816 58.0039 225.273 57.6406 225.656 57.1562L227.297 58.9375C227.031 59.3203 226.668 59.6875 226.207 60.0391C225.754 60.3906 225.207 60.6797 224.566 60.9062C223.926 61.125 223.195 61.2344 222.375 61.2344Z" fill="#888888"/>
<path d="M114.117 84.875H122.344V107.164C122.344 109.82 121.789 112.07 120.68 113.914C119.57 115.742 118.016 117.125 116.016 118.062C114.016 119 111.664 119.469 108.961 119.469C106.289 119.469 103.938 119 101.906 118.062C99.8906 117.125 98.3125 115.742 97.1719 113.914C96.0469 112.07 95.4844 109.82 95.4844 107.164V84.875H103.734V107.164C103.734 108.57 103.938 109.719 104.344 110.609C104.75 111.484 105.344 112.125 106.125 112.531C106.906 112.938 107.852 113.141 108.961 113.141C110.086 113.141 111.031 112.938 111.797 112.531C112.562 112.125 113.141 111.484 113.531 110.609C113.922 109.719 114.117 108.57 114.117 107.164V84.875ZM136.266 84.875V119H128.062V84.875H136.266ZM172.523 84.875H180.75V107.164C180.75 109.82 180.195 112.07 179.086 113.914C177.977 115.742 176.422 117.125 174.422 118.062C172.422 119 170.07 119.469 167.367 119.469C164.695 119.469 162.344 119 160.312 118.062C158.297 117.125 156.719 115.742 155.578 113.914C154.453 112.07 153.891 109.82 153.891 107.164V84.875H162.141V107.164C162.141 108.57 162.344 109.719 162.75 110.609C163.156 111.484 163.75 112.125 164.531 112.531C165.312 112.938 166.258 113.141 167.367 113.141C168.492 113.141 169.438 112.938 170.203 112.531C170.969 112.125 171.547 111.484 171.938 110.609C172.328 109.719 172.523 108.57 172.523 107.164V84.875ZM193.078 84.875L198.656 96.2188L204.234 84.875H213.609L204.094 101.797L213.867 119H204.398L198.656 107.445L192.914 119H183.422L193.219 101.797L183.68 84.875H193.078Z" fill="black"/>
<path d="M1134 0H1348C1356.28 0 1363 6.71573 1363 15V148C1363 156.284 1356.28 163 1348 163H1134V0Z" fill="#019444"/>
<path d="M1248.5 111.917C1244.51 111.917 1240.55 111.13 1236.86 109.601C1233.17 108.073 1229.82 105.832 1226.99 103.008C1221.29 97.3036 1218.08 89.567 1218.08 81.5C1218.08 73.433 1221.29 65.6964 1226.99 59.9922C1232.7 54.2879 1240.43 51.0833 1248.5 51.0833C1265.23 51.0833 1278.92 63.25 1278.92 78.4583C1278.92 83.2985 1276.99 87.9405 1273.57 91.363C1270.15 94.7856 1265.51 96.7083 1260.67 96.7083H1255.19C1254.28 96.7083 1253.67 97.3167 1253.67 98.2292C1253.67 98.5333 1253.97 98.8375 1253.97 99.1417C1255.19 100.662 1255.8 102.487 1255.8 104.312C1256.1 108.571 1252.76 111.917 1248.5 111.917ZM1248.5 57.1667C1242.05 57.1667 1235.86 59.7303 1231.29 64.2937C1226.73 68.8571 1224.17 75.0464 1224.17 81.5C1224.17 87.9536 1226.73 94.1429 1231.29 98.7063C1235.86 103.27 1242.05 105.833 1248.5 105.833C1249.41 105.833 1250.02 105.225 1250.02 104.312C1250.02 103.704 1249.72 103.4 1249.72 103.096C1248.5 101.575 1247.89 100.054 1247.89 98.2292C1247.89 93.9708 1251.24 90.625 1255.5 90.625H1260.67C1263.89 90.625 1266.99 89.3432 1269.27 87.0615C1271.55 84.7798 1272.83 81.6851 1272.83 78.4583C1272.83 66.5958 1261.88 57.1667 1248.5 57.1667ZM1231.77 75.4167C1234.2 75.4167 1236.33 77.5458 1236.33 79.9792C1236.33 82.4125 1234.2 84.5417 1231.77 84.5417C1229.34 84.5417 1227.21 82.4125 1227.21 79.9792C1227.21 77.5458 1229.34 75.4167 1231.77 75.4167ZM1240.9 63.25C1243.33 63.25 1245.46 65.3792 1245.46 67.8125C1245.46 70.2458 1243.33 72.375 1240.9 72.375C1238.46 72.375 1236.33 70.2458 1236.33 67.8125C1236.33 65.3792 1238.46 63.25 1240.9 63.25ZM1256.1 63.25C1258.54 63.25 1260.67 65.3792 1260.67 67.8125C1260.67 70.2458 1258.54 72.375 1256.1 72.375C1253.67 72.375 1251.54 70.2458 1251.54 67.8125C1251.54 65.3792 1253.67 63.25 1256.1 63.25ZM1265.23 75.4167C1267.66 75.4167 1269.79 77.5458 1269.79 79.9792C1269.79 82.4125 1267.66 84.5417 1265.23 84.5417C1262.8 84.5417 1260.67 82.4125 1260.67 79.9792C1260.67 77.5458 1262.8 75.4167 1265.23 75.4167Z" fill="white"/>
</svg>
